<?xml version="1.0" encoding="UTF-8"?>
<svg id="Layer_1" xmlns="http://www.w3.org/2000/svg" version="1.1" viewBox="0 0 595.28 336.97">
  <!-- Generator: Adobe Illustrator 30.3.0, SVG Export Plug-In . SVG Version: 2.1.3 Build 182)  -->
  <defs>
    <style>
      .st0 {
        fill: #fff;
      }
    </style>
  </defs>
  <path class="st0" d="M560.33,219.46l-83.38-29.34,75.72-70.72c2.61-2.43,3.71-6.08,2.9-9.55-.81-3.47-3.42-6.24-6.84-7.26L235.79,8.87c-3.28-.98-6.83-.21-9.41,2.04L31.67,181.04c-.05.04-.09.1-.14.14-.13.12-.24.24-.36.36-.23.23-.44.46-.64.71-.11.14-.22.28-.32.42-.19.26-.36.53-.53.81-.08.14-.17.28-.25.42-.18.34-.33.69-.47,1.05-.03.09-.08.17-.11.26-.16.45-.28.91-.37,1.38-.03.14-.04.28-.06.42-.05.34-.09.68-.11,1.03,0,.17,0,.35,0,.52,0,.33.02.66.06,1,.01.11,0,.21.02.32l2.07,15.03c.5,3.62,2.94,6.67,6.35,7.96l305.27,114.99c1.13.43,2.32.64,3.51.64,1.32,0,2.65-.26,3.89-.79l211.47-89.71c3.78-1.61,6.19-5.37,6.06-9.48-.13-4.11-2.77-7.71-6.65-9.08ZM312.38,176.25c-6.71,4.26-14.7,7.24-23.14,9.3-2,.43-3.97.7-6.07.69-5.83-.03-8.78-2.32-11.91-5.44-3.65-3.63-9.15-5.89-15.55-6.23l-4.95-.48c-6.34-.94-9.16-4.65-10.17-8.89-2.2-9.24-.42-18.62,4.96-27.32,0-.01.02-.02.02-.03,1.86-2.99,4.26-5.91,7.15-8.53,3.16-2.86,6.92-5.34,11.32-7.09,1.04-.41,2.09-.8,3.2-1.13,6.53-1.94,13.79-1.94,20.12.19,2.68.9,4.85,2.01,6.72,3.59l5.07,4.27c1.71,1.44,3.72,2.26,6.39,2.57l7.71.89c4.26.5,7.94,1.72,11.25,3.62,4.32,2.49,7.12,5.82,8.14,9.63.27,1,.44,2.02.45,3.08-5.03.18-9.67,1.41-13.59,3.39-2.96,1.5-5.52,3.41-7.45,5.7-.6.71-1.13,1.44-1.58,2.19-3.19,5.25-2.6,11.17,1.91,16.05ZM318.1,128.59c-4.6.65-10.04.22-13.91-1.66,5.48-8.36,20.33-12.39,32.42-8.57-3.48,5.29-10.39,9.09-18.51,10.23ZM355.55,303.51l104.99-98.06,68.96,24.27-173.95,73.79Z"/>
</svg>