<?xml version="1.0" encoding="UTF-8"?>
<svg id="Layer_1" xmlns="http://www.w3.org/2000/svg" version="1.1" viewBox="0 0 595.28 336.97">
  <!-- Generator: Adobe Illustrator 30.3.0, SVG Export Plug-In . SVG Version: 2.1.3 Build 182)  -->
  <defs>
    <style>
      .st0 {
        fill: #fff;
      }
    </style>
  </defs>
  <path class="st0" d="M560.03,218.01l-83.38-29.34,75.72-70.72c2.61-2.43,3.71-6.08,2.9-9.55-.81-3.47-3.42-6.24-6.84-7.26L235.48,7.42c-3.28-.98-6.83-.21-9.41,2.04L31.37,179.59c-.05.04-.09.1-.14.14-.13.12-.24.24-.36.36-.23.23-.44.46-.64.71-.11.14-.22.28-.32.42-.19.26-.36.53-.53.81-.08.14-.17.28-.25.42-.18.34-.33.69-.47,1.05-.03.09-.08.17-.11.26-.16.45-.28.91-.37,1.38-.03.14-.04.28-.06.42-.05.34-.09.68-.11,1.03,0,.17,0,.35,0,.52,0,.33.02.66.06,1,.01.11,0,.21.02.32l2.07,15.03c.5,3.62,2.94,6.67,6.35,7.96l305.27,114.99c1.13.43,2.32.64,3.51.64,1.32,0,2.65-.26,3.89-.79l211.47-89.71c3.78-1.6,6.19-5.37,6.06-9.48s-2.77-7.71-6.65-9.08ZM96.42,149.19L235.04,28.07l291.06,87.17-70.64,65.98-8.21,7.67-8.21,7.67-98.17,91.69L63.93,186.07l-6.83-2.52,12.81-11.19,26.52-23.17ZM355.25,302.06l104.99-98.06,68.96,24.27-173.95,73.79Z"/>
  <path class="st0" d="M250.45,172.64l4.95.48c6.4.34,11.9,2.6,15.55,6.23,3.13,3.12,6.08,5.41,11.91,5.44,2.1.01,4.07-.26,6.07-.69,8.44-2.06,16.43-5.05,23.14-9.3-4.51-4.88-5.1-10.8-1.91-16.05.45-.74.98-1.47,1.58-2.19,1.93-2.28,4.49-4.2,7.45-5.7,3.92-1.98,8.56-3.21,13.59-3.39-.01-1.06-.18-2.08-.45-3.08-1.02-3.81-3.82-7.14-8.14-9.63-3.31-1.91-6.99-3.12-11.25-3.62l-7.71-.89c-2.66-.31-4.67-1.13-6.39-2.57l-5.07-4.27c-1.87-1.57-4.03-2.69-6.72-3.59-6.33-2.13-13.59-2.13-20.12-.19-1.11.33-2.16.72-3.2,1.13-4.4,1.75-8.16,4.23-11.32,7.09-2.89,2.62-5.3,5.53-7.15,8.53,0,.01-.02.02-.02.03-5.38,8.7-7.16,18.08-4.96,27.32,1.01,4.24,3.83,7.95,10.17,8.89Z"/>
  <path class="st0" d="M317.8,127.14c8.12-1.14,15.03-4.94,18.51-10.23-12.09-3.82-26.94.21-32.42,8.57,3.87,1.88,9.31,2.31,13.91,1.66Z"/>
</svg>